<svg version="1.1" id="Layer_1" xmlns="http://www.w3.org/2000/svg" x="0" y="0" viewBox="0 0 530 98" xml:space="preserve"><style>.st1{fill:#fff}</style><path class="st1" d="M90.6 48.2c.1.4-.1.8-.4 1.2-.3.4-.7.6-1.1.7l-.4.1-16 3.8c-1.1 3.8-2.5 7.3-4.1 10.6-1.6 3.3-3.4 6.3-5.5 8.9-2.8 3.6-6 6.8-9.6 9.7C50 86 46.2 88.5 42 90.5c-3.6 1.8-7.3 3.2-11 4.2s-7.3 1.5-10.7 1.7c-1.7 0-3.4-.1-5.1-.2-1.7-.2-3.2-.5-4.5-.9-2.9-1-4.8-2.6-5.7-4.6-1.8-3.6-1.6-7.3.6-10.9C7.8 76.1 12 72.5 18.4 69c5.4-2.9 12.4-5.8 21-8.7 3.2-1 6.4-2.1 9.7-3 3.3-1 6.7-1.9 10.1-2.8.5-1.7 1-3.4 1.3-5.1.4-1.7.7-3.5.9-5.3.9-6.1 1.2-11.7.6-16.8-.5-5.1-1.9-9.4-4.1-12.9-1.9-3.1-4.3-5.4-7.1-7C48 5.8 45.1 5 42.1 4.8c-3-.4-6 .1-9.1 1.2-3 1.1-5.8 2.9-8.4 5.2-2 1.9-3.9 4-5.5 6.4-1.6 2.4-3 4.9-4.3 7.4-1.2 2.5-2.2 5.1-3 7.5-.8 2.5-1.3 4.7-1.5 6.8-.3 2.1-.3 3.9 0 5.4s.7 2.5 1.5 3.1c.8.6 1.1 1.3.7 2-.3.7-1 1.3-2 1.7-1 .4-2.1.6-3.5.5s-2.6-.7-3.7-1.7C1.5 48.7.4 46.5.1 43.7c-.4-2.8-.1-5.8.8-9.1s2.4-6.7 4.5-10.3c2.1-3.5 4.7-6.8 7.9-9.9 3.2-3.1 6.9-5.7 11-8 4.2-2.3 8.8-3.8 13.9-4.6 6.1-1 11.8-1 16.8 0 5.1 1 9.3 3.1 12.6 6.5 3.3 3.3 5.7 7.9 7 13.8 1.3 5.9 1.4 13.1.1 21.8-.2 1.2-.4 2.4-.6 3.5-.2 1.1-.5 2.2-.7 3.3l15-3.5.6-.2c.5-.1.9 0 1.2.2.3.2.5.6.4 1zM8 88.7c.7 1.5 1.7 2.6 3 3.2 1.3.6 2.7.9 4.3.9 1.6 0 3.2-.2 5-.7 1.8-.5 3.5-1.1 5.2-1.7 1.7-.7 3.3-1.4 4.7-2.2 1.5-.8 2.7-1.5 3.8-2.1 5.7-3.4 10.6-7.4 14.7-12s7.2-10.1 9.5-16.5c-3.2.8-6.3 1.7-9.4 2.6-3.1.9-6.1 1.9-8.9 2.8-17.7 6-28.2 11.9-31.6 17.8-1.5 2.6-1.6 5.2-.3 7.9zM18.2 56c-.4-1.3-.3-3.1.4-5.4.7-2.4 1.6-5 2.8-7.8s2.5-5.7 3.9-8.7c1.4-3 2.8-5.8 3.9-8.3 1.2-2.5 2.1-4.7 2.7-6.5.6-1.8.7-2.9.3-3.3-.3-.2-.2-.5.2-.7.4-.3.9-.5 1.6-.7.7-.2 1.5-.3 2.3-.4.9-.1 1.7 0 2.5.2s1.5.6 2 1.2c.6.6.9 1.4 1 2.4.2 2 0 4.1-.7 6.5-.7 2.3-1.7 4.7-2.8 7.1s-2.5 4.9-3.9 7.4-2.7 4.9-3.9 7.2c-1.2 2.3-2.2 4.5-3 6.5-.8 2-1.1 3.9-1 5.4 0 .5-.3.9-1 1.4-.7.4-1.4.7-2.4.7-.9 0-1.8-.3-2.8-.9-.9-.7-1.6-1.7-2.1-3.3z"/><path class="st1" d="M106 39.9c-.8 1.5-1.7 3.2-2.8 5-1.1 1.8-2.2 3.5-3.5 5.3-1.3 1.8-2.6 3.4-3.9 4.9-1.3 1.5-2.7 2.7-4.1 3.6-1.4.9-2.7 1.4-3.9 1.4-1.1.1-2-.2-2.7-.6-.8-.5-1.4-1.1-1.9-2-.5-.9-.8-1.9-.9-3.1-.2-1.2-.2-2.6 0-4 .2-1.7.6-3.6 1.2-5.5s1.3-3.9 2.1-5.8 1.6-3.8 2.4-5.6c.8-1.8 1.5-3.5 2.1-4.9.6-1.5 1-2.7 1.3-3.7.2-1 .2-1.7-.2-2-.4-.3-.2-.7.5-1.1.7-.4 1.6-.7 2.6-.7 1-.1 2.1.2 3.3.7 1.1.5 1.9 1.6 2.4 3.1s.4 3.4-.2 5.6c-.6 2.2-1.5 4.4-2.6 6.8-1.1 2.4-2.3 4.7-3.6 7-1.3 2.3-2.4 4.4-3.2 6.2s-1.4 3.3-1.5 4.3c-.1 1.1.4 1.6 1.6 1.5.5-.1 1.2-.5 2-1.3s1.7-1.8 2.7-3c1-1.2 2-2.6 3.1-4.1 1.1-1.5 2-3 3-4.6.9-1.5 1.8-3 2.5-4.3.7-1.4 1.3-2.5 1.6-3.4.2-.4.4-.7.8-.8.4-.1.7-.1 1 0 .3.1.6.3.7.6.2.3.2.7 0 1-.5.7-1.1 1.9-1.9 3.5zm-3.4-24.5c.3-.6.6-1.3.9-1.9.3-.6.7-1.2.9-1.8.3-.6.4-1 .4-1.3 0-1.3-.4-2.4-1.2-3.2-.8-.8-1.7-1.5-2.6-1.9-1-.4-1.9-.6-2.6-.6-.8 0-1.2.2-1.2.6 0 .3-.2.8-.5 1.3-.3.6-.7 1.2-1.1 1.9-.4.7-.7 1.3-1.1 1.9-.3.6-.5 1.1-.5 1.5 0 1.3.4 2.4 1.3 3.3.8.9 1.7 1.5 2.7 1.9 1 .4 1.9.6 2.7.6.8 0 1.3-.2 1.3-.6.1-.6.3-1.1.6-1.7z"/><path class="st1" d="M114.6 58.4c-1.2.7-2.3 1.1-3.4 1.4-1.1.3-1.9.5-2.7.5-2.1 0-3.7-.5-4.8-1.6-1.1-1.1-1.9-2.3-2.2-3.8-.4-1.5-.4-2.9-.2-4.4.3-1.5.8-2.6 1.5-3.4 1.1-1.1 2-1.8 2.8-2.2.8-.4 1.5-.5 2.1-.4.6.1 1.1.3 1.6.7.5.4.7.9.7 1.6 0 .7-.2 1.3-.7 1.7-.5.5-1.1.7-1.7.7-.5 0-.9-.1-1.3-.4-.4-.3-.7-.7-.9-1.1-.7.8-1.2 1.7-1.4 2.8-.3 1.1-.3 2.2-.2 3.1.2 1 .6 1.8 1.2 2.6s1.6 1.1 2.7 1.1c.4 0 1-.2 1.8-.6.8-.4 1.6-1 2.4-2 .8-.9 1.5-2.1 2.2-3.5.6-1.4 1-3.2 1.1-5.2.1-2-.1-4.4-.7-7.2-.6-2.7-1.7-5.8-3.3-9.2-.5 1-1.1 2.1-1.8 3.3-.7 1.2-1.2 2.3-1.8 3.3-.3.4-.6.6-.9.6-.4.1-.7 0-1-.1-.3-.1-.5-.3-.7-.6-.1-.3-.1-.6.1-1 .4-.9.8-1.7 1.2-2.4.4-.7.7-1.4 1.1-2 .4-.6.7-1.3 1-1.9.3-.7.7-1.4 1-2.1-.6-.8-1-1.8-1.3-2.8-.3-1-.5-2-.5-3.1 0-.5.1-1.1.3-1.8.2-.7.5-1.4.9-2.1.4-.7 1.1-1.3 1.9-1.8.8-.5 1.8-.7 3.1-.7s2.3.3 2.9.9c.6.6.9 1.3 1 2.2.1.9-.1 1.9-.6 3-.4 1.1-1 2.1-1.7 3.2l-.2.5c2 2.4 3.7 4.6 4.9 6.8 1.2 2.2 2.2 4.2 2.8 6.1.6 1.9 1 3.8 1.1 5.4.1 1.7-.1 3.3-.4 4.7 1.7-2 3.3-4 4.6-5.9 1.4-1.9 2.5-3.8 3.4-5.5.2-.4.4-.6.7-.7.3-.1.7-.1 1.2.2.4.2.6.5.7.9.1.4 0 .7-.1 1-1.3 2.6-2.7 5-4.4 7.2-1.7 2.3-3.5 4.5-5.5 6.8-1.4 1.6-2.9 3-4.5 4.3-1.3 1-3 2.1-5.1 2.9z"/><path class="st1" d="M152 27.1c0-.4.1-.8.4-1.2.2-.4.5-.7.9-.9-.3-.6-.7-.9-1.3-.9-.7-.1-1.5.3-2.4 1-.9.7-1.9 1.7-2.9 3.1-1 1.3-2.1 3-3.2 5s-2.2 4.2-3.3 6.6c-.7 1.5-1.2 3.2-1.7 5-.4 1.8-.7 3.6-.8 5.2-.1 1.6.1 3 .4 4.2.4 1.2 1 1.9 2 2.1 1.2.2 2.4 0 3.7-.5 1.3-.6 2.7-1.4 4.1-2.5 1.4-1.1 2.8-2.4 4.1-3.9 1.3-1.5 2.6-3 3.8-4.6 1.2-1.6 2.2-3.2 3.2-4.8.9-1.6 1.6-3.1 2.2-4.4.2-.4.4-.7.8-.8.4-.1.8-.1 1.2.1.7.4.9.9.6 1.7-.8 1.8-1.9 3.8-3.1 5.9-1.2 2.1-2.6 4.1-4.1 6-1.5 1.9-3.2 3.8-4.9 5.5-1.8 1.7-3.6 3.1-5.4 4.2-1.9 1.1-3.8 1.8-5.8 2.1-2 .3-3.9.1-5.8-.7-2.1-.8-3.6-2.1-4.5-3.7-.9-1.6-1.5-3.4-1.6-5.3-.2-1.9 0-3.9.5-6s1.1-4 1.7-5.7c1.3-3.2 2.7-5.9 4.2-8.2 1.5-2.3 3.2-4.1 4.9-5.6 1.7-1.4 3.5-2.5 5.4-3.1 1.8-.6 3.7-.9 5.6-.9.6.1 1.3.2 2 .4s1.4.5 2 .9c.6.4 1.1 1 1.5 1.7.4.7.6 1.6.6 2.6 0 1.1-.2 1.8-.7 2.3-.4.5-1 .8-1.7.8-.6 0-1.2-.2-1.7-.6-.7-.9-.9-1.4-.9-2.1z"/><path class="st1" d="M186.3 26.4c0 .8-.2 1.4-.5 1.8-.4.8-1.1 1.2-2 1.2-.6 0-1.2-.2-1.7-.6-.5-.4-.7-1-.7-1.7 0-.4.1-.8.4-1.2.2-.4.5-.7.9-.9-.4-.7-.9-1.1-1.5-1.1s-1.1.2-1.8.7c-.6.4-1.3 1.1-1.9 1.8-.7.8-1.3 1.5-1.9 2.3-1.1 1.4-2.2 3.1-3.2 4.9-1 1.9-1.9 3.8-2.7 5.7-.8 2-1.4 3.9-1.9 5.8s-.7 3.7-.7 5.2c0 1.6.2 2.9.7 3.9.5 1 1.3 1.6 2.4 1.9.8.2 1.7-.2 2.6-1.1 1-.9 1.9-2 2.9-3.3 1-1.4 1.9-2.8 2.8-4.4.9-1.6 1.7-3.1 2.4-4.4-1.1-.5-1.9-1.2-2.3-2.3-.4-1.1-.6-2.2-.4-3.3.2-1.1.6-2.1 1.3-2.9.7-.8 1.5-1.3 2.6-1.3.4 0 .8 0 1.4.1.6.1 1.1.3 1.5.8.4.5.7 1.3.7 2.4.1 1.1-.2 2.7-.9 4.8 2.1-.1 3.8-.3 5-.9 1.3-.5 2.2-1.1 3-1.7s1.2-1.2 1.4-1.9c.2-.6.4-1 .5-1.1.2-.4.4-.6.7-.7.3-.1.7 0 1 .1.3.2.6.4.7.7.2.3.2.7 0 1.1-.4 1-1.1 1.9-2 2.8-.9.8-1.9 1.5-3.1 2.1-1.2.6-2.5 1-3.9 1.3-1.4.3-2.9.4-4.4.4-.7 1.6-1.7 3.4-2.8 5.4-1.1 2-2.4 3.8-3.9 5.5-1.5 1.7-3.1 3.1-4.8 4.2-1.8 1.1-3.6 1.6-5.6 1.4-2.6-.3-4.7-1.4-6.2-3.3s-2.3-4.3-2.4-7.1c-.1-2.1.2-4.3.6-6.6.5-2.3 1.2-4.5 2.1-6.7.9-2.2 2.1-4.3 3.5-6.3s2.9-3.7 4.6-5.2c1.7-1.5 3.6-2.6 5.6-3.4 2-.8 4.1-1.1 6.3-1 1 .1 1.8.3 2.5.7.7.4 1.2.9 1.6 1.4.4.6.7 1.2.9 1.8.3 1 .4 1.6.6 2.2z"/><path class="st1" d="M223.8 24.8c.4 1.5.4 3.5 0 5.8-.4 2.4-1.1 4.9-2.1 7.5-1 2.6-2.3 5.3-3.9 7.9-1.6 2.7-3.3 5-5.3 7.2-2 2.1-4.1 3.8-6.4 5.1-2.3 1.3-4.7 1.9-7.2 1.9s-4.4-.5-5.7-1.5c-1.3-1-2.1-2.3-2.4-3.9-.3-1.6-.3-3.5 0-5.6.4-2.1.9-4.3 1.7-6.5.7-2.2 1.5-4.5 2.4-6.7.9-2.2 1.7-4.3 2.4-6.1.7-1.8 1.2-3.4 1.5-4.6.3-1.3.3-2.1-.1-2.5-.4-.3-.2-.7.5-1.1.7-.4 1.6-.7 2.6-.7 1-.1 2.1.2 3.3.7 1.1.5 1.9 1.6 2.4 3.1s.4 3.4-.2 5.6c-.6 2.2-1.5 4.5-2.6 6.9-1.1 2.4-2.3 4.8-3.5 7.1-1.2 2.4-2.2 4.5-2.9 6.4-.7 1.9-1 3.4-.9 4.6.1 1.2 1 1.7 2.6 1.7s3.1-.8 4.5-2.4c1.4-1.6 2.8-3.6 4-6.1 1.2-2.4 2.3-5.1 3.3-8 .9-2.9 1.7-5.6 2.4-8.1.6-2.5 1-4.7 1.3-6.6.2-1.8.2-2.9 0-3.2-.2-.3 0-.7.7-1.1.7-.4 1.5-.7 2.5-.7 1-.1 2 .2 3 .7 1 .6 1.7 1.6 2.1 3.2zm35.5 9.9c.6.4.8 1 .5 1.7-.9 1.9-2 3.9-3.2 5.9-1.2 2.1-2.6 4.1-4.2 6.1-1.5 2-3.2 3.8-4.9 5.4-1.7 1.7-3.5 3-5.4 4.1-1.9 1.1-3.8 1.7-5.7 2-1.9.3-3.9.1-5.8-.7-2.1-.8-3.6-2.1-4.5-3.7-.9-1.6-1.5-3.4-1.6-5.3-.2-1.9 0-3.9.5-6s1.1-4 1.7-5.7c1.3-3.2 2.7-5.9 4.2-8.1 1.5-2.2 3.2-4.1 4.9-5.5 1.7-1.4 3.5-2.5 5.4-3.1 1.8-.7 3.7-1 5.6-1 1.9 0 3.4.5 4.3 1.4.9.9 1.4 2.2 1.4 3.7s-.4 3.2-1.3 5c-.8 1.8-2 3.6-3.6 5.4-1.5 1.8-3.4 3.4-5.6 4.8-2.2 1.4-4.7 2.5-7.4 3.3-.4 1.4-.6 2.7-.8 4.1-.2 1.3-.2 2.6-.1 3.7s.4 2 .7 2.8c.4.7 1 1.2 1.8 1.3 1.2.2 2.4 0 3.7-.5 1.3-.6 2.7-1.4 4.1-2.5 1.4-1.1 2.8-2.4 4.1-3.9 1.3-1.5 2.6-3 3.8-4.6 1.2-1.6 2.2-3.2 3.2-4.8.9-1.6 1.6-3.1 2.2-4.4.2-.4.4-.7.8-.9.4-.4.8-.3 1.2 0zm-23.1 4.9c-.3.6-.5 1.1-.6 1.6 3.2-1.1 5.7-2.6 7.8-4.5 2-1.9 3.5-3.8 4.5-5.7 1-1.9 1.5-3.5 1.5-4.8 0-1.4-.4-2.1-1.4-2.1-1.4-.1-3.2 1.3-5.4 4.1-2.1 2.7-4.3 6.5-6.4 11.4z"/><path class="st1" d="M259.5 37c-.2.3-.4.5-.7.6-.3.1-.7.1-.9 0-.3-.1-.5-.3-.7-.6-.2-.3-.2-.6 0-1.1.2-.5.4-1.2.9-2.2.4-1 .8-2 1.3-3.1.4-1.1.8-2.1 1.3-3.1.4-1 .7-1.9.9-2.6-1.2-.6-2.2-1.5-3.1-2.8-.9-1.3-1.3-2.5-1.3-3.8 0-1.6.4-3 1.3-4.2.8-1.2 2.1-1.7 3.8-1.7 1.1 0 2 .4 2.7 1.3.8.9 1.2 1.9 1.2 3.1 0 .7 0 1.6-.1 2.8-.1 1.2-.2 2.2-.4 3 .3.2.6.3 1.1.4.4.1.9.1 1.5.1 1.2 0 2.1-.1 2.7-.4.7-.3 1.2-.5 1.7-.8.5-.3.9-.6 1.4-.8.5-.3 1.1-.4 1.9-.4 1 0 2.1.3 3.2.8 1 .5 1.8 1.5 2.3 3.1.5 1.5.4 3.4-.2 5.6-.6 2.2-1.5 4.4-2.6 6.8-1.1 2.4-2.3 4.7-3.6 7-1.3 2.3-2.4 4.4-3.2 6.2-.9 1.8-1.4 3.3-1.5 4.3-.1 1.1.4 1.6 1.6 1.5.5-.1 1.1-.5 2-1.3.8-.8 1.8-1.8 2.8-3 1-1.2 2-2.6 3.1-4.1 1-1.5 2-3 3-4.6.9-1.5 1.8-3 2.5-4.3.7-1.4 1.3-2.5 1.6-3.4.2-.4.4-.7.8-.8.4-.1.7-.1 1 0 .3.1.6.3.7.6.2.3.2.7 0 1-.4.9-1 2.1-1.8 3.7-.8 1.5-1.7 3.2-2.8 5-1.1 1.8-2.2 3.5-3.5 5.3-1.3 1.8-2.6 3.4-3.9 4.9-1.3 1.5-2.7 2.7-4.1 3.6-1.4.9-2.7 1.4-3.9 1.4-1.1.1-2-.2-2.7-.6-.8-.5-1.4-1.1-1.9-2-.5-.9-.8-1.9-.9-3.1-.2-1.2-.2-2.6 0-4 .2-2 .7-4.2 1.5-6.5s1.7-4.6 2.6-6.8c.9-2.2 1.9-4.3 2.8-6.3.9-1.9 1.5-3.6 2-5-1.1.4-2.4.7-3.7.7-1.4.1-2.8-.1-4.1-.4-.2.4-.4 1-.8 2s-.8 2-1.3 3.1-.9 2.2-1.4 3.3c-1.4 1.2-1.8 2-2.1 2.6zm123.1 14.3c-.1.4-.2.8-.5 1.1-.3.3-.7.6-1.1.7-.1 0-.5.1-1.3.2s-2 .3-3.5.6-3.3.5-5.3.9-4.2.8-6.6 1.3c-.7 2.4-1.6 4.8-2.5 7.2-.9 2.4-2 4.7-3.2 6.9-3.7 7.2-8 13-13.1 17.4-5.7 5.1-12.3 8.4-19.6 10.1-1.4.3-2.7.5-4 .5-1.6 0-3-.2-4.2-.6-2.5-.7-4.5-2-6-3.9-1.3-1.7-2-3.8-2.1-6.2-.2-2.5.4-5.2 1.8-8 2.5-5.2 7.7-9.9 15.7-14.1 3-1.6 6.4-3.1 10.2-4.6s8-2.9 12.5-4.2c1.3-3.8 2.3-7.5 3.1-11.1.8-3.6 1.5-6.9 2-9.9-1.1 1.7-2.2 3.3-3.4 4.8-1.2 1.5-2.3 3-3.5 4.4-3.4 4.1-6.9 7.6-10.4 10.4-3 2.4-5.9 4.2-8.7 5.4-2.8 1.2-5.4 1.9-8 1.9h-1.4c-4.2-.5-7.4-2.5-9.6-6.1-.6-1.2-1.1-2.5-1.5-3.9-.4-1.4-.6-2.8-.6-4.4-.1-3.3.6-6.8 1.8-10.5 1-2.8 2.1-5.5 3.3-8.1 1.2-2.6 2.6-5.1 4.1-7.5 2.7-4.3 5.8-8.2 9.2-11.6 1.5-1.5 3.2-3 5.1-4.3 1.9-1.3 3.8-2.4 5.8-3.3 2-.9 4-1.4 6.1-1.7 2-.3 4-.1 6 .6 2.4.8 4.5 1.9 6.2 3.4 1.7 1.5 3 3.1 3.9 5 .9 1.8 1.3 3.7 1.3 5.6 0 1.9-.6 3.8-1.7 5.5-.3.5-.8.8-1.5.9-.7.1-1.4.1-2.2 0-.8-.1-1.7-.2-2.5-.5-.9-.3-1.6-.6-2.3-.9s-1.1-.6-1.5-1c-.3-.3-.3-.6-.1-.9 1.3-1.3 2.2-2.7 2.7-4.2s.7-2.8.6-4.1c-.1-1.3-.5-2.4-1.1-3.3-.6-.9-1.4-1.6-2.3-2-1.3-.5-2.7-.5-4.2.2-1.5.6-3 1.7-4.6 3.2-1.6 1.5-3.2 3.3-4.8 5.5-1.6 2.2-3.1 4.6-4.6 7.2-1.5 2.6-2.9 5.3-4.2 8.2-1.3 2.9-2.5 5.7-3.5 8.6-1.4 4.1-2.1 7.7-2 10.6.1 2.9.8 5.1 2 6.4 1.3 1.4 3 1.9 5.3 1.6 2.3-.3 4.8-1.6 7.7-3.9 3.4-2.7 6.8-6.1 10.2-10.3 3.4-4.2 6.7-8.9 10-14.2.2-.4.7-.7 1.5-1 .8-.3 1.7-.5 2.7-.7 1-.2 2.1-.4 3.3-.5 1.2-.1 2.2-.1 3.1 0 .9.1 1.7.3 2.3.6.6.3.9.7.8 1.3-.3 3.5-.8 7.3-1.5 11.5s-1.7 8.6-3 13.2c2.3-.5 4.3-.9 6.2-1.2 1.9-.3 3.5-.6 4.9-.9 1.4-.2 2.9-.5 4.5-.7 1.2-.1 1.7.4 1.8 1.4zm-68.2 40.2c.6.7 1.5 1.1 2.8 1.2 1.3.1 2.8-.2 4.5-.7 1.7-.5 3.5-1.3 5.5-2.4 1.9-1.1 3.9-2.4 5.8-4 2-1.7 3.8-3.6 5.6-5.9 1.7-2.3 3.2-4.6 4.6-6.9 1.3-2.4 2.5-4.6 3.4-6.8s1.6-4.1 2-5.7c-9.5 2.8-17.1 6-22.8 9.4-5.8 3.4-9.5 7.1-11.4 10.9-1.1 2.2-1.6 4.3-1.5 6.1-.1 1.8.4 3.4 1.5 4.8zM383.7 37c-.2.3-.4.5-.7.6-.3.1-.7.1-.9 0-.3-.1-.5-.3-.7-.6-.2-.3-.2-.6 0-1.1.2-.5.4-1.2.9-2.2.4-1 .8-2 1.3-3.1.4-1.1.8-2.1 1.3-3.1s.7-1.9.9-2.6c-1.2-.6-2.2-1.5-3.1-2.8-.9-1.3-1.3-2.5-1.3-3.8 0-1.6.4-3 1.3-4.2.8-1.2 2.1-1.7 3.8-1.7 1 0 2 .4 2.7 1.3.8.9 1.2 1.9 1.2 3.1 0 .7 0 1.6-.1 2.8-.1 1.2-.2 2.2-.4 3 .3.2.6.3 1.1.4.4.1.9.1 1.5.1 1.2 0 2.1-.1 2.7-.4.7-.3 1.2-.5 1.7-.8.5-.3.9-.6 1.4-.8.5-.3 1.1-.4 1.9-.4 1 0 2.1.3 3.2.8 1 .5 1.8 1.5 2.3 3.1.5 1.5.4 3.4-.2 5.6-.6 2.2-1.5 4.4-2.6 6.8-1.1 2.4-2.3 4.7-3.6 7-1.3 2.3-2.4 4.4-3.2 6.2-.9 1.8-1.4 3.3-1.5 4.3-.1 1.1.4 1.6 1.6 1.5.5-.1 1.1-.5 2-1.3.8-.8 1.8-1.8 2.8-3 1-1.2 2-2.6 3.1-4.1 1-1.5 2-3 3-4.6.9-1.5 1.8-3 2.5-4.3.7-1.4 1.3-2.5 1.6-3.4.2-.4.4-.7.8-.8.4-.1.7-.1 1 0 .3.1.6.3.7.6.2.3.2.7 0 1-.4.9-1 2.1-1.8 3.7-.8 1.5-1.7 3.2-2.8 5-1.1 1.8-2.2 3.5-3.5 5.3-1.3 1.8-2.6 3.4-3.9 4.9-1.3 1.5-2.7 2.7-4.1 3.6-1.4.9-2.7 1.4-3.9 1.4-1.1.1-2-.2-2.7-.6-.8-.5-1.4-1.1-1.9-2-.5-.9-.8-1.9-.9-3.1-.2-1.2-.2-2.6 0-4 .2-2 .7-4.2 1.5-6.5s1.7-4.6 2.6-6.8c.9-2.2 1.9-4.3 2.8-6.3.9-1.9 1.5-3.6 2-5-1.1.4-2.4.7-3.7.7-1.4.1-2.8-.1-4.1-.4-.2.4-.4 1-.8 2s-.8 2-1.3 3.1-.9 2.2-1.4 3.3c-1.4 1.2-1.8 2-2.1 2.6z"/><path class="st1" d="M441.6 34.7c.6.4.8 1 .5 1.7-.9 1.9-2 3.9-3.2 5.9-1.2 2.1-2.6 4.1-4.2 6.1s-3.2 3.8-4.9 5.4c-1.7 1.7-3.5 3-5.4 4.1-1.9 1.1-3.8 1.7-5.7 2-1.9.3-3.9.1-5.8-.7-2.1-.8-3.6-2.1-4.5-3.7-.9-1.6-1.5-3.4-1.6-5.3-.2-1.9 0-3.9.5-6s1.1-4 1.7-5.7c1.3-3.2 2.7-5.9 4.2-8.1 1.5-2.2 3.2-4.1 4.9-5.5 1.7-1.4 3.5-2.5 5.4-3.1 1.8-.7 3.7-1 5.6-1 1.9 0 3.4.5 4.3 1.4.9.9 1.4 2.2 1.4 3.7s-.4 3.2-1.3 5c-.8 1.8-2 3.6-3.6 5.4-1.5 1.8-3.4 3.4-5.6 4.8-2.2 1.4-4.7 2.5-7.4 3.3-.4 1.4-.6 2.7-.8 4.1-.2 1.3-.2 2.6-.1 3.7s.4 2 .7 2.8c.4.7 1 1.2 1.8 1.3 1.2.2 2.4 0 3.7-.5 1.3-.6 2.7-1.4 4.1-2.5 1.4-1.1 2.8-2.4 4.1-3.9 1.3-1.5 2.6-3 3.8-4.6 1.2-1.6 2.2-3.2 3.2-4.8.9-1.6 1.6-3.1 2.2-4.4.2-.4.4-.7.8-.9.3-.4.7-.3 1.2 0zm-23.1 4.9c-.3.6-.5 1.1-.6 1.6 3.2-1.1 5.7-2.6 7.8-4.5 2-1.9 3.5-3.8 4.5-5.7 1-1.9 1.5-3.5 1.5-4.8 0-1.4-.4-2.1-1.4-2.1-1.4-.1-3.2 1.3-5.4 4.1-2.1 2.7-4.3 6.5-6.4 11.4z"/><path class="st1" d="M470.7 34.7c.6.4.8 1 .5 1.7-.9 1.9-2 3.9-3.2 5.9-1.2 2.1-2.6 4.1-4.2 6.1s-3.2 3.8-4.9 5.4c-1.7 1.7-3.5 3-5.4 4.1-1.9 1.1-3.8 1.7-5.7 2s-3.9.1-5.8-.7c-2.1-.8-3.6-2.1-4.5-3.7-.9-1.6-1.5-3.4-1.6-5.3s0-3.9.5-6 1.1-4 1.7-5.7c1.3-3.2 2.7-5.9 4.2-8.1 1.5-2.2 3.2-4.1 4.9-5.5 1.7-1.4 3.5-2.5 5.4-3.1 1.8-.7 3.7-1 5.6-1 1.9 0 3.4.5 4.3 1.4.9.9 1.4 2.2 1.4 3.7s-.4 3.2-1.3 5c-.8 1.8-2 3.6-3.6 5.4-1.6 1.8-3.4 3.4-5.6 4.8-2.2 1.4-4.7 2.5-7.4 3.3-.4 1.4-.6 2.7-.8 4.1-.2 1.3-.2 2.6-.1 3.7s.4 2 .7 2.8c.4.7 1 1.2 1.8 1.3 1.2.2 2.4 0 3.7-.5 1.3-.6 2.7-1.4 4.1-2.5 1.4-1.1 2.8-2.4 4.1-3.9 1.3-1.5 2.6-3 3.8-4.6 1.2-1.6 2.2-3.2 3.2-4.8.9-1.6 1.6-3.1 2.2-4.4.2-.4.4-.7.8-.9.4-.4.8-.3 1.2 0zm-23.1 4.9c-.3.6-.5 1.1-.6 1.6 3.2-1.1 5.7-2.6 7.8-4.5 2-1.9 3.5-3.8 4.5-5.7 1-1.9 1.5-3.5 1.5-4.8 0-1.4-.4-2.1-1.4-2.1-1.4-.1-3.2 1.3-5.4 4.1-2.1 2.7-4.2 6.5-6.4 11.4z"/><path class="st1" d="M488.8 27.1c0-.4.1-.8.4-1.2.2-.4.5-.7.9-.9-.3-.6-.7-.9-1.3-.9-.7-.1-1.5.3-2.4 1s-1.9 1.7-2.9 3.1c-1 1.3-2.1 3-3.2 5s-2.2 4.2-3.3 6.6c-.7 1.5-1.2 3.2-1.7 5-.4 1.8-.7 3.6-.8 5.2-.1 1.6.1 3 .4 4.2.4 1.2 1 1.9 2 2.1 1.2.2 2.4 0 3.7-.5 1.3-.6 2.7-1.4 4.1-2.5 1.4-1.1 2.8-2.4 4.1-3.9 1.3-1.5 2.6-3 3.8-4.6 1.2-1.6 2.2-3.2 3.2-4.8.9-1.6 1.6-3.1 2.2-4.4.2-.4.4-.7.8-.8.4-.1.8-.1 1.2.1.7.4.9.9.6 1.7-.8 1.8-1.9 3.8-3.1 5.9-1.2 2.1-2.6 4.1-4.1 6-1.5 1.9-3.2 3.8-4.9 5.5-1.8 1.7-3.6 3.1-5.4 4.2-1.9 1.1-3.8 1.8-5.8 2.1-2 .3-3.9.1-5.8-.7-2.1-.8-3.6-2.1-4.5-3.7-.9-1.6-1.5-3.4-1.6-5.3-.2-1.9 0-3.9.5-6s1.1-4 1.7-5.7c1.3-3.2 2.7-5.9 4.2-8.2 1.5-2.3 3.2-4.1 4.9-5.6 1.7-1.4 3.5-2.5 5.4-3.1s3.7-.9 5.6-.9c.6.1 1.3.2 2 .4s1.4.5 2 .9c.6.4 1.1 1 1.5 1.7s.6 1.6.6 2.6c0 1.1-.2 1.8-.7 2.3-.4.5-1 .8-1.7.8-.6 0-1.2-.2-1.7-.6-.6-.9-.9-1.4-.9-2.1z"/><path class="st1" d="M529.2 34.7c.6.4.8 1 .5 1.7-.9 1.9-2 3.9-3.2 5.9-1.2 2.1-2.6 4.1-4.2 6.1s-3.2 3.8-4.9 5.4c-1.7 1.7-3.5 3-5.4 4.1-1.9 1.1-3.8 1.7-5.7 2-1.9.3-3.9.1-5.8-.7-2.1-.8-3.6-2.1-4.5-3.7-.9-1.6-1.5-3.4-1.6-5.3-.2-1.9 0-3.9.5-6s1.1-4 1.7-5.7c1.3-3.2 2.7-5.9 4.2-8.1 1.5-2.2 3.2-4.1 4.9-5.5 1.7-1.4 3.5-2.5 5.4-3.1 1.8-.7 3.7-1 5.6-1 1.9 0 3.4.5 4.3 1.4.9.9 1.4 2.2 1.4 3.7s-.4 3.2-1.3 5c-.8 1.8-2 3.6-3.6 5.4-1.5 1.8-3.4 3.4-5.6 4.8-2.2 1.4-4.7 2.5-7.4 3.3-.4 1.4-.6 2.7-.8 4.1-.2 1.3-.2 2.6-.1 3.7s.4 2 .7 2.8c.4.7 1 1.2 1.8 1.3 1.2.2 2.4 0 3.7-.5 1.3-.6 2.7-1.4 4.1-2.5 1.4-1.1 2.8-2.4 4.1-3.9 1.3-1.5 2.6-3 3.8-4.6 1.2-1.6 2.2-3.2 3.2-4.8.9-1.6 1.6-3.1 2.2-4.4.2-.4.4-.7.8-.9.4-.4.8-.3 1.2 0zm-23 4.9c-.3.6-.5 1.1-.6 1.6 3.2-1.1 5.7-2.6 7.8-4.5 2-1.9 3.5-3.8 4.5-5.7 1-1.9 1.5-3.5 1.5-4.8 0-1.4-.4-2.1-1.4-2.1-1.4-.1-3.2 1.3-5.4 4.1-2.1 2.7-4.3 6.5-6.4 11.4z"/></svg>