<?xml version="1.0" encoding="utf-8"?>
<!-- Generator: Adobe Illustrator 15.1.0, SVG Export Plug-In . SVG Version: 6.00 Build 0)  -->
<!DOCTYPE svg PUBLIC "-//W3C//DTD SVG 1.1//EN" "http://www.w3.org/Graphics/SVG/1.1/DTD/svg11.dtd">
<svg version="1.1" id="Layer_16" xmlns="http://www.w3.org/2000/svg" xmlns:xlink="http://www.w3.org/1999/xlink" x="0px" y="0px"
	 width="1556.113px" height="343.234px" viewBox="181.944 133.249 1556.113 343.234"
	 enable-background="new 181.944 133.249 1556.113 343.234" xml:space="preserve">
<g>
	<path d="M419.682,259.979c2.016,1.747,4.703,3.226,7.929,4.569v3.763c-9.139-0.403-18.949-0.537-29.835-0.537
		c-8.332,0-16.396,0.134-24.189,0.537v-3.763c3.628-0.135,6.182-0.538,7.794-1.075s2.284-1.479,2.284-2.554
		s-0.672-2.688-2.016-4.838l-27.685-44.887c-1.747-2.822-3.226-4.972-4.569-6.45c-1.209-1.479-2.553-2.419-3.896-3.091
		c-1.344-0.673-2.957-0.941-4.973-1.21v47.574c0,4.838,0.403,8.198,1.075,10.482c0.672,2.15,2.016,3.629,3.897,4.436
		c1.881,0.806,4.973,1.344,9.272,1.478v3.763c-6.854-0.402-16.396-0.537-28.76-0.537c-13.708,0-23.652,0.135-30.103,0.537v-3.763
		c4.166-0.134,7.256-0.672,9.272-1.478c1.881-0.807,3.226-2.285,3.897-4.436s1.074-5.645,1.074-10.482v-94.611
		c0-4.838-0.402-8.197-1.074-10.482c-0.672-2.15-2.017-3.628-3.897-4.435c-1.882-0.807-4.973-1.344-9.272-1.479v-3.763
		c6.45,0.403,16.395,0.537,30.103,0.537c12.364,0,21.906-0.134,28.76-0.537v3.763c-4.3,0.135-7.392,0.672-9.272,1.479
		c-1.882,0.807-3.226,2.284-3.897,4.435s-1.075,5.645-1.075,10.482v43.006c4.973-0.27,9.676-1.882,13.842-4.704
		c4.167-2.822,9.005-7.257,14.381-13.305l11.288-13.573c5.778-6.854,8.601-12.768,8.601-17.605c0-3.226-1.209-5.645-3.628-7.392
		s-5.913-2.822-10.349-2.956v-3.629c9.408,0.403,18.815,0.537,28.357,0.537c7.391,0,13.305-0.134,17.873-0.537v3.629
		c-10.079,2.284-19.352,8.466-27.684,18.411l-23.922,28.356l44.483,69.346C415.65,255.813,417.667,258.232,419.682,259.979z"/>
	<path d="M570.333,252.587l-45.558-101.196c-1.344,0.135-2.822,0.269-4.436,0.269c-1.479,0-2.822-0.134-4.435-0.269l-40.452,92.864
		c-2.956,6.585-5.645,11.558-8.197,14.783c-2.554,3.226-5.511,5.106-8.198,5.778v3.897c2.688-0.403,8.063-0.538,15.052-0.538
		c7.391,0,14.783,0.135,21.637,0.538v-3.897c-5.375-0.403-9.542-1.479-12.363-3.359c-2.823-1.882-4.032-5.107-4.032-9.542
		c0-4.973,1.882-11.423,5.51-19.621l22.578-51.068l29.7,67.867c1.613,3.494,2.42,6.182,2.42,8.467c0,2.554-1.076,4.301-3.092,5.51
		c-2.016,1.075-5.51,1.747-9.542,2.016v3.897c6.72-0.402,16.665-0.537,30.373-0.537c10.751,0,19.755,0.134,25.131,0.537v-3.897
		C578.128,264.817,573.962,260.651,570.333,252.587z"/>
	<path d="M612.129,178.269c0-7.929-0.403-16.53-1.344-25.938c11.154,0.403,29.835,0.538,56.041,0.538
		c26.878,0,45.961-0.135,57.116-0.538c-0.94,10.214-1.345,18.949-1.345,25.938c0,6.586,0.27,12.229,0.673,16.799h-4.436
		c-1.747-9.676-3.897-17.202-6.45-22.712c-2.42-5.51-5.645-9.541-9.542-11.961c-3.897-2.419-8.87-3.628-14.918-3.628h-5.913v89.504
		c0,5.241,0.537,9.139,1.479,11.558s2.822,4.166,5.376,5.106c2.554,0.941,6.72,1.479,12.364,1.613v3.763
		c-6.854-0.403-18.412-0.537-34.404-0.537c-16.127,0-27.147,0.134-33.329,0.537v-3.763c5.644-0.135,9.811-0.807,12.363-1.613
		c2.554-0.806,4.436-2.688,5.376-5.106s1.479-6.316,1.479-11.558v-89.504h-5.913c-6.048,0-11.021,1.209-14.918,3.628
		s-7.122,6.451-9.542,11.961c-2.419,5.51-4.568,13.17-6.316,22.712h-4.435C611.995,191.037,612.129,185.392,612.129,178.269z"/>
	<path d="M861.694,252.319l-45.425-100.391c-1.344,0.135-2.822,0.27-4.435,0.27c-1.479,0-2.822-0.135-4.436-0.27l-40.317,92.192
		c-2.956,6.585-5.778,11.424-8.332,14.648c-2.553,3.226-5.376,5.107-8.467,5.779v3.763c3.36-0.403,8.602-0.537,15.455-0.537
		c7.392,0,14.783,0.134,22.04,0.537v-3.763c-5.51-0.403-9.676-1.479-12.498-3.494c-2.822-1.882-4.166-5.106-4.166-9.542
		c0-4.973,1.746-11.423,5.375-19.621l22.309-50.8l29.566,67.33c1.613,3.494,2.419,6.316,2.419,8.601c0,2.42-1.075,4.301-3.091,5.376
		s-5.107,1.747-9.272,2.016v3.764c6.45-0.403,16.53-0.538,30.103-0.538c10.617,0,18.949,0.135,24.997,0.538v-3.764
		C869.488,264.28,865.457,260.248,861.694,252.319z"/>
	<path d="M1027.129,268.311c-3.764,1.747-8.602,2.688-14.246,2.688c-7.123,0-12.768-1.478-16.664-4.3
		c-4.031-2.822-6.586-6.585-7.795-11.289l-5.51-22.577c-0.941-4.839-2.285-8.602-3.898-11.155c-1.611-2.553-3.627-4.3-5.912-5.241
		c-2.42-0.94-5.375-1.344-9.273-1.344h-6.181v32.791c0,4.839,0.402,8.198,1.074,10.483c0.673,2.149,2.017,3.628,3.898,4.435
		s4.973,1.344,9.273,1.479v3.763c-7.258-0.403-17.606-0.538-31.179-0.538c-11.961,0-20.831,0.135-26.609,0.538v-3.763
		c4.3-0.135,7.391-0.672,9.272-1.479s3.226-2.285,3.897-4.435c0.672-2.15,1.075-5.645,1.075-10.483v-75.527
		c0-4.838-0.403-8.332-1.075-10.482s-2.016-3.629-3.897-4.435c-1.882-0.807-4.973-1.21-9.272-1.479v-3.763
		c5.778,0.403,14.379,0.537,25.534,0.537c5.106,0,10.886,0,17.202-0.134c6.316-0.135,10.751-0.135,13.169-0.135
		c17.068,0,29.836,2.554,38.303,7.795c8.467,5.106,12.631,12.364,12.631,21.368c0,4.973-1.344,9.676-4.031,14.111
		c-2.688,4.435-7.391,8.332-13.842,11.558c-6.586,3.225-15.186,5.375-26.072,6.45c1.883,0.135,3.764,0.403,5.645,0.672
		c9.139,1.075,16.396,3.226,21.637,6.182c5.242,2.957,8.736,7.795,10.35,14.515l4.031,16.934c0.807,3.628,1.881,6.182,3.09,7.66
		c1.211,1.478,2.957,2.284,4.84,2.284c2.688,0,5.375-1.344,8.197-4.166l2.688,2.554
		C1034.385,263.876,1030.891,266.564,1027.129,268.311z M980.898,207.969c3.627-2.419,6.182-5.51,7.391-9.541
		c1.344-4.032,2.016-8.87,2.016-14.648c0-9.273-1.746-16.127-5.375-20.831c-3.494-4.569-9.408-6.854-17.605-6.854
		c-2.822,0-4.838,0.403-6.182,1.344c-1.344,0.94-2.285,2.554-2.823,4.838c-0.537,2.284-0.807,5.778-0.807,10.214v38.973h8.198
		C972.162,211.463,977.27,210.254,980.898,207.969z"/>
	<path d="M1110.451,264.01h20.158c6.719,0,12.363-1.209,17.068-3.763c4.703-2.553,8.467-6.585,11.557-12.364
		c3.092-5.644,5.375-13.305,6.854-22.712h4.436c-0.402,4.704-0.537,10.752-0.537,18.009c0,7.525,0.402,15.858,1.344,25.131
		c-8.869-0.403-23.922-0.537-45.156-0.537c-21.904,0-37.896,0.134-47.842,0.537v-3.763l59.938-107.781h-20.023
		c-6.451,0-11.961,1.209-16.396,3.494c-4.434,2.419-8.197,6.182-11.154,11.558c-2.957,5.375-5.24,12.498-6.719,21.368h-4.436
		c0.404-3.763,0.672-9.273,0.672-16.799c0-6.585-0.402-14.515-1.344-24.057c9.541,0.403,25.535,0.538,47.844,0.538
		c20.158,0,34.672-0.135,43.676-0.538v3.764L1110.451,264.01z"/>
	<path d="M1313.783,152.87c6.451,0,11.289-0.135,14.648-0.538v3.764c-2.553,1.075-5.105,3.225-7.795,6.45
		c-2.688,3.226-5.643,7.795-9.271,13.977l-21.771,39.914v30.507c0,5.107,0.402,8.87,1.344,11.154
		c0.941,2.285,2.553,3.897,4.838,4.839c2.42,0.806,6.182,1.344,11.424,1.612v3.763c-6.721-0.403-17.605-0.537-32.791-0.537
		c-15.59,0-26.207,0.134-31.852,0.537v-3.763c5.242-0.135,9.004-0.672,11.424-1.612c2.42-0.807,4.031-2.42,4.973-4.839
		c0.939-2.284,1.344-6.047,1.344-11.154v-20.562l-34.135-59.4c-2.15-3.764-4.031-6.316-5.779-7.93
		c-1.748-1.612-3.494-2.419-5.375-2.822v-4.031c7.928,0.672,15.455,0.94,22.576,0.94c10.08,0,21.234-0.269,33.598-0.94v4.031
		c-3.762,0-6.719,0.403-9.004,1.075c-2.15,0.672-3.225,2.016-3.225,4.166c0,1.613,0.672,3.494,2.15,5.913l25.803,45.155
		l12.363-22.309c4.973-9.139,7.393-16.53,7.393-22.04c0-7.525-4.838-11.558-14.381-12.095v-3.764
		C1300.076,152.735,1307.199,152.87,1313.783,152.87z"/>
	<path d="M1481.906,159.051c-2.016,1.344-3.359,3.359-4.031,6.182s-1.076,6.988-1.076,12.633v90.849
		c-1.074,0-2.822-0.135-5.105-0.135c-2.285,0-3.898,0-4.973,0.135l-76.469-94.88v68.942c0,5.645,0.537,9.811,1.479,12.633
		s2.822,4.838,5.51,6.182c2.688,1.345,6.855,2.285,12.633,2.822v3.763c-5.645-0.402-12.9-0.537-21.771-0.537
		c-6.988,0-12.498,0.135-16.529,0.537v-3.763c4.166-0.537,7.256-1.478,9.273-2.822c2.016-1.344,3.359-3.359,4.031-6.182
		s1.074-6.988,1.074-12.633v-70.286c0-4.838-0.402-8.198-1.074-10.482c-0.672-2.15-2.016-3.629-3.898-4.436
		c-1.881-0.806-4.971-1.344-9.271-1.478v-3.763c4.031,0.402,9.541,0.537,16.529,0.537c9.004,0,16.799-0.135,23.25-0.537
		l60.879,75.527v-49.993c0-5.645-0.537-9.811-1.479-12.633c-1.074-2.822-2.822-4.973-5.645-6.183
		c-2.822-1.209-6.854-2.284-12.498-2.822v-3.763c5.51,0.403,12.768,0.538,21.771,0.538c7.123,0,12.633-0.135,16.529-0.538v3.763
		C1487.014,156.767,1483.922,157.708,1481.906,159.051z"/>
	<path d="M1634.439,252.319l-45.424-100.391c-1.344,0.135-2.822,0.27-4.434,0.27c-1.479,0-2.822-0.135-4.436-0.27l-40.318,92.192
		c-2.955,6.585-5.777,11.424-8.332,14.648c-2.553,3.226-5.375,5.107-8.467,5.779v3.763c3.361-0.403,8.602-0.537,15.455-0.537
		c7.393,0,14.783,0.134,22.041,0.537v-3.763c-5.51-0.403-9.676-1.479-12.498-3.494c-2.822-1.882-4.168-5.106-4.168-9.542
		c0-4.973,1.748-11.423,5.377-19.621l22.309-50.8l29.566,67.33c1.611,3.494,2.418,6.316,2.418,8.601c0,2.42-1.074,4.301-3.09,5.376
		s-5.107,1.747-9.273,2.016v3.764c6.451-0.403,16.531-0.538,30.104-0.538c10.617,0,18.949,0.135,24.996,0.538v-3.764
		C1642.1,264.28,1638.203,260.248,1634.439,252.319z"/>
	<g>
		<path d="M321.845,463.85c2.284,2.016,5.241,3.629,9.004,5.107v4.301c-10.214-0.404-21.502-0.672-33.731-0.672
			c-9.542,0-18.681,0.268-27.416,0.672v-4.301c4.031-0.27,6.988-0.672,8.735-1.209c1.747-0.674,2.688-1.613,2.688-2.957
			c0-1.211-0.806-2.957-2.284-5.51l-31.313-50.666c-2.016-3.225-3.628-5.51-5.106-7.258c-1.479-1.611-2.957-2.822-4.436-3.494
			s-3.359-1.074-5.645-1.344v53.891c0,5.377,0.404,9.408,1.21,11.826c0.807,2.42,2.284,4.166,4.435,5.107s5.645,1.479,10.482,1.748
			v4.299c-7.794-0.402-18.545-0.672-32.521-0.672c-15.455,0-26.744,0.27-34.002,0.672v-4.299c4.839-0.27,8.198-0.807,10.483-1.748
			c2.15-0.941,3.628-2.553,4.435-5.107c0.807-2.418,1.209-6.449,1.209-11.826V343.301c0-5.375-0.402-9.406-1.209-11.826
			c-0.807-2.418-2.284-4.166-4.435-5.107c-2.15-0.939-5.645-1.477-10.483-1.746v-4.301c7.258,0.402,18.547,0.672,34.002,0.672
			c13.977,0,24.861-0.27,32.521-0.672v4.301c-4.838,0.27-8.332,0.807-10.482,1.746c-2.15,0.941-3.628,2.555-4.435,5.107
			c-0.807,2.42-1.21,6.451-1.21,11.826v48.65c5.645-0.404,10.887-2.15,15.725-5.242c4.838-3.225,10.213-8.197,16.261-15.051
			l12.768-15.32c6.585-7.795,9.811-14.381,9.811-19.891c0-3.629-1.344-6.451-4.166-8.467c-2.823-2.016-6.72-3.225-11.692-3.359
			v-4.166c10.617,0.402,21.234,0.672,31.985,0.672c8.332,0,15.052-0.27,20.293-0.672v4.166c-11.423,2.553-21.771,9.541-31.313,20.83
			l-27.012,31.984l50.262,78.484C317.411,459.281,319.561,461.969,321.845,463.85z"/>
		<path d="M492.119,455.248l-51.337-113.559c-1.613,0.268-3.226,0.268-4.973,0.268c-1.613,0-3.226-0.135-4.973-0.268
			l-45.559,104.287c-3.359,7.391-6.585,13.035-9.407,16.664c-2.956,3.629-6.182,5.779-9.676,6.451v4.299
			c3.897-0.402,9.676-0.672,17.471-0.672c8.332,0,16.664,0.27,24.862,0.672v-4.299c-6.316-0.404-11.02-1.748-14.111-3.898
			c-3.225-2.15-4.703-5.779-4.703-10.75c0-5.512,2.016-12.902,6.047-22.176l25.266-57.385l33.463,76.199
			c1.882,3.898,2.688,7.258,2.688,9.811c0,2.822-1.21,4.838-3.36,6.049c-2.15,1.209-5.778,2.016-10.482,2.15v4.299
			c7.258-0.402,18.681-0.672,34.001-0.672c11.961,0,21.368,0.27,28.223,0.672v-4.299
			C500.854,468.822,496.285,464.254,492.119,455.248z"/>
		<path d="M660.375,460.355c-1.075,0-2.553,0.672-4.301,2.15c-5.375,4.436-10.885,7.93-16.664,10.348
			c-5.778,2.42-12.633,3.629-20.562,3.629c-13.708,0-25.803-2.688-36.286-7.93c-10.482-5.24-18.68-13.035-24.459-23.115
			c-5.912-10.078-8.734-22.174-8.734-36.285c0-13.707,2.956-25.803,9.004-36.42c6.047-10.617,14.245-18.814,24.728-24.729
			c10.482-5.912,22.309-8.734,35.21-8.734c5.779,0,10.886,0.672,15.32,1.881c4.301,1.211,8.064,2.822,11.154,4.705
			c3.092,1.881,6.316,4.434,9.812,7.391c1.747,1.344,3.225,2.15,4.166,2.15c2.822,0,4.704-4.301,5.645-13.035h4.972
			c-0.537,8.6-0.807,23.787-0.807,45.289h-5.106c-1.344-7.795-2.822-13.439-4.3-16.934c-1.479-3.629-3.629-7.123-6.451-10.617
			c-4.166-4.838-8.735-8.467-13.843-11.154c-5.106-2.688-10.348-4.031-15.858-4.031c-7.929,0-14.917,2.553-20.83,7.66
			s-10.482,12.363-13.708,22.041c-3.226,9.541-4.838,20.83-4.838,34s1.747,24.459,5.376,34c3.494,9.408,8.467,16.531,14.648,21.369
			s13.17,7.258,20.83,7.258c5.645,0,11.289-1.346,16.664-3.898c5.376-2.688,9.945-6.316,13.843-11.154
			c2.822-3.629,4.838-7.391,6.183-11.557c1.344-4.166,2.553-10.215,3.628-18.277h4.973c0,22.711,0.269,38.57,0.806,47.574h-4.972
			C665.08,464.656,663.333,460.355,660.375,460.355z"/>
		<path d="M767.754,468.42H790.6c7.526,0,13.977-1.479,19.353-4.301c5.241-2.822,9.677-7.527,13.036-13.977
			c3.494-6.451,6.047-15.053,7.795-25.67h4.973c-0.404,5.377-0.673,12.096-0.673,20.293c0,8.467,0.538,18.01,1.613,28.492
			c-9.945-0.404-27.013-0.672-51.069-0.672c-24.728,0-42.736,0.268-54.159,0.672v-4.301l67.733-121.893h-22.713
			c-7.257,0-13.438,1.344-18.545,4.031c-5.107,2.688-9.273,6.988-12.633,13.035c-3.36,6.049-5.913,14.111-7.66,24.191h-5.107
			c0.537-4.166,0.672-10.482,0.672-18.949c0-7.391-0.537-16.396-1.612-27.146c10.886,0.402,28.894,0.672,54.159,0.672
			c22.712,0,39.242-0.27,49.456-0.672v4.301L767.754,468.42z"/>
		<path d="M997.562,342.764c7.258,0,12.768-0.27,16.529-0.672v4.301c-2.822,1.209-5.777,3.629-8.734,7.256
			c-2.957,3.494-6.451,8.871-10.482,15.859l-24.594,45.154v34.404c0,5.779,0.537,9.945,1.479,12.633
			c1.074,2.688,2.822,4.436,5.51,5.375c2.688,0.941,6.988,1.613,12.902,1.748v4.301c-7.527-0.404-20.025-0.672-37.092-0.672
			c-17.605,0-29.566,0.268-36.017,0.672v-4.301c5.912-0.27,10.213-0.807,12.901-1.748c2.688-0.939,4.569-2.82,5.645-5.375
			c1.075-2.688,1.478-6.854,1.478-12.633v-23.25l-38.569-67.195c-2.419-4.166-4.569-7.121-6.451-8.869
			c-1.881-1.746-3.897-2.822-6.048-3.225v-4.57c8.87,0.672,17.471,1.076,25.535,1.076c11.423,0,24.056-0.404,37.897-1.076v4.57
			c-4.3,0-7.66,0.402-10.079,1.209s-3.629,2.285-3.629,4.703c0,1.748,0.807,4.031,2.42,6.721l29.162,51.068l13.977-25.131
			c5.51-10.35,8.332-18.682,8.332-24.863c0-8.602-5.51-13.17-16.395-13.707v-4.301C982.242,342.629,990.305,342.764,997.562,342.764
			z"/>
		<path d="M1187.859,349.752c-2.285,1.479-3.764,3.896-4.568,6.988c-0.807,3.225-1.209,7.93-1.209,14.381V473.93
			c-1.211-0.135-3.227-0.135-5.779-0.135c-2.555,0-4.436,0-5.645,0.135l-86.414-107.244v77.947c0,6.449,0.537,11.154,1.748,14.379
			c1.074,3.225,3.225,5.51,6.316,6.988c3.09,1.479,7.795,2.553,14.244,3.225v4.301c-6.449-0.402-14.648-0.672-24.594-0.672
			c-7.928,0-14.244,0.27-18.814,0.672v-4.301c4.705-0.672,8.199-1.746,10.482-3.225c2.285-1.479,3.764-3.896,4.57-6.988
			c0.807-3.225,1.209-7.93,1.209-14.379v-79.426c0-5.375-0.402-9.408-1.209-11.826c-0.807-2.42-2.285-4.166-4.436-5.107
			s-5.645-1.479-10.482-1.746v-4.301c4.568,0.402,10.887,0.672,18.814,0.672c10.215,0,18.949-0.27,26.342-0.672l68.807,85.473
			v-56.578c0-6.316-0.537-11.021-1.746-14.246c-1.209-3.227-3.227-5.51-6.316-7.123c-3.092-1.613-7.795-2.553-14.111-3.225v-4.301
			c6.316,0.402,14.514,0.672,24.729,0.672c8.062,0,14.244-0.27,18.814-0.672v4.301
			C1193.504,347.064,1190.01,348.139,1187.859,349.752z M1128.324,311.584c3.092-3.09,6.988-7.122,11.559-12.094
			c4.568-4.973,8.6-8.332,11.826-10.079c2.15-1.075,4.301-1.747,6.586-1.747c2.283,0,4.434,0.537,6.314,1.747
			c2.018,1.075,3.496,2.688,4.57,4.703c0.807,1.747,1.209,3.36,1.209,4.973c0,2.15-0.672,4.301-1.881,6.183
			c-1.209,2.016-3.092,3.627-5.377,4.838c-3.225,1.746-7.525,3.359-12.766,4.703c-5.242,1.344-10.215,2.688-15.053,3.896
			c-4.838,1.211-10.482,3.227-17.066,5.645l-1.479-2.688C1121.336,318.17,1125.234,314.676,1128.324,311.584z"/>
		<path d="M1272.525,458.34c7.258,8.734,17.471,13.17,30.775,13.17c4.166,0,8.064-0.672,11.691-2.15
			c3.629-1.344,6.586-3.629,8.871-6.584c2.285-2.957,3.359-6.586,3.359-11.021c0-4.031-1.074-7.66-3.359-10.75
			c-2.15-3.227-5.242-6.182-9.273-9.139c-4.031-2.822-9.676-6.451-17.066-10.752c-8.871-4.973-16.262-9.676-22.176-14.111
			c-5.912-4.434-10.75-9.273-14.514-14.783s-5.645-11.557-5.645-18.143c0-7.525,2.15-13.977,6.451-19.217
			c4.301-5.242,10.213-9.273,17.74-11.826c7.525-2.689,15.992-3.898,25.398-3.898c6.586,0,12.23,0.672,16.934,2.15
			s9.139,3.359,13.305,5.914c2.016,1.209,3.494,2.016,4.568,2.418c0.941,0.404,1.883,0.672,2.689,0.672
			c1.344,0,2.283-0.807,2.955-2.285c0.672-1.477,1.209-4.031,1.748-7.256h4.973c-0.672,8.602-1.076,23.652-1.076,44.887h-4.973
			c-1.479-12.902-5.645-23.115-12.498-30.508c-6.719-7.391-15.59-11.154-26.609-11.154c-4.838,0-9.004,0.672-12.633,2.15
			s-6.451,3.494-8.332,6.049c-2.016,2.553-2.957,5.51-2.957,8.869c0,4.301,1.344,8.197,4.168,11.557
			c2.822,3.361,6.182,6.451,10.078,9.004c3.896,2.555,10.752,6.855,20.562,12.768c8.6,4.838,15.59,9.273,21.1,13.305
			s10.078,8.736,13.707,14.111s5.375,11.424,5.375,18.277c0,7.93-2.283,14.514-6.854,20.023c-4.568,5.512-10.885,9.678-18.814,12.5
			c-8.064,2.822-17.336,4.166-27.686,4.166c-6.988,0-12.9-0.807-17.873-2.285s-10.08-3.629-15.455-6.049
			c-3.494-1.746-6.047-2.688-7.525-2.688c-1.344,0-2.42,0.807-3.092,2.285s-1.209,3.898-1.748,7.258h-4.971
			c0.537-8.064,0.807-25.67,0.807-52.547h4.971C1261.236,437.645,1265.27,449.604,1272.525,458.34z"/>
		<path d="M1554.074,464.119c2.016,1.881,4.436,3.629,7.393,4.973v4.299c-9.945-0.402-20.967-0.672-32.926-0.672
			c-10.215,0-20.025,0.27-29.432,0.672v-4.299c4.703-0.27,7.928-0.672,9.811-1.211c1.881-0.537,2.822-1.611,2.822-2.955
			c0-1.211-0.807-3.092-2.42-5.645l-28.355-40.586c-2.555-3.629-4.973-6.184-7.393-7.93c-2.418-1.748-5.645-2.688-9.541-2.957
			v42.602c0,5.377,0.402,9.408,1.209,11.826c0.807,2.42,2.285,4.166,4.436,5.107s5.645,1.479,10.482,1.748v4.299
			c-7.258-0.402-18.01-0.672-31.986-0.672c-15.051,0-26.205,0.27-33.463,0.672v-4.299c4.838-0.27,8.332-0.807,10.482-1.748
			s3.629-2.553,4.436-5.107c0.807-2.418,1.209-6.449,1.209-11.826v-85.473c0-5.375-0.402-9.406-1.209-11.826
			c-0.807-2.418-2.285-4.166-4.436-5.107c-2.15-0.939-5.645-1.477-10.482-1.746v-4.301c7.258,0.404,18.412,0.672,33.463,0.672
			c13.977,0,24.594-0.268,31.986-0.672v4.301c-4.973,0.27-8.467,0.807-10.617,1.746c-2.15,0.941-3.629,2.555-4.436,4.973
			c-0.807,2.42-1.209,6.316-1.209,11.826v38.438c6.182-0.539,11.826-2.018,16.934-4.57s10.617-6.719,16.664-12.229l13.17-13.439
			c5.51-5.107,8.332-10.08,8.332-14.918c0-3.494-1.479-6.316-4.434-8.467c-2.957-2.15-6.855-3.359-11.693-3.629v-4.166
			c10.482,0.404,21.639,0.672,33.33,0.672c7.66,0,14.111-0.268,19.217-0.672v4.166c-5.105,1.211-9.943,3.227-14.514,5.914
			c-4.568,2.688-9.541,6.719-14.918,11.826l-26.475,26.207l47.172,65.717C1549.641,459.414,1552.059,462.104,1554.074,464.119z"/>
		<path d="M1724.617,455.248l-51.338-113.559c-1.479,0.268-3.225,0.268-4.973,0.268c-1.611,0-3.225-0.135-4.973-0.268
			l-45.559,104.287c-3.359,7.391-6.584,13.035-9.406,16.664c-2.957,3.629-6.182,5.779-9.676,6.451v4.299
			c3.896-0.402,9.676-0.672,17.471-0.672c8.332,0,16.664,0.27,24.861,0.672v-4.299c-6.316-0.404-11.02-1.748-14.111-3.898
			c-3.225-2.15-4.703-5.779-4.703-10.75c0-5.512,2.016-12.902,6.049-22.176l25.264-57.385l33.465,76.199
			c1.881,3.898,2.688,7.258,2.688,9.811c0,2.822-1.209,4.838-3.359,6.049c-2.285,1.209-5.779,2.016-10.482,2.15v4.299
			c7.256-0.402,18.68-0.672,34-0.672c11.961,0,21.367,0.27,28.223,0.672v-4.299C1733.352,468.822,1728.783,464.254,1724.617,455.248
			z"/>
	</g>
</g>
</svg>
