<?xml version="1.0" encoding="utf-8"?>
<!-- Generator: Adobe Illustrator 21.0.0, SVG Export Plug-In . SVG Version: 6.00 Build 0)  -->
<!DOCTYPE svg PUBLIC "-//W3C//DTD SVG 1.1//EN" "http://www.w3.org/Graphics/SVG/1.1/DTD/svg11.dtd">
<svg version="1.1" id="Layer_16" xmlns="http://www.w3.org/2000/svg" xmlns:xlink="http://www.w3.org/1999/xlink" x="0px" y="0px"
	 viewBox="0 0 2104.6 124.1" enable-background="new 0 0 2104.6 124.1" xml:space="preserve">
<g>
	<path d="M92,115.9c1.5,1.3,3.5,2.4,5.9,3.4v2.8c-6.8-0.3-14.1-0.4-22.2-0.4c-6.2,0-12.2,0.1-18,0.4v-2.8c2.7-0.1,4.6-0.4,5.8-0.8
		c1.2-0.4,1.7-1.1,1.7-1.9c0-0.8-0.5-2-1.5-3.6L43.1,79.5c-1.3-2.1-2.4-3.7-3.4-4.8c-0.9-1.1-1.9-1.8-2.9-2.3s-2.2-0.7-3.7-0.9v35.4
		c0,3.6,0.3,6.1,0.8,7.8c0.5,1.6,1.5,2.7,2.9,3.3c1.4,0.6,3.7,1,6.9,1.1v2.8c-5.1-0.3-12.2-0.4-21.4-0.4c-10.2,0-17.6,0.1-22.4,0.4
		v-2.8c3.1-0.1,5.4-0.5,6.9-1.1c1.4-0.6,2.4-1.7,2.9-3.3c0.5-1.6,0.8-4.2,0.8-7.8V36.6c0-3.6-0.3-6.1-0.8-7.8
		c-0.5-1.6-1.5-2.7-2.9-3.3c-1.4-0.6-3.7-1-6.9-1.1v-2.8C4.8,21.8,12.2,22,22.4,22c9.2,0,16.3-0.1,21.4-0.4v2.8
		c-3.2,0.1-5.5,0.5-6.9,1.1c-1.4,0.6-2.4,1.7-2.9,3.3c-0.5,1.6-0.8,4.2-0.8,7.8v32c3.7-0.2,7.2-1.4,10.3-3.5
		c3.1-2.1,6.7-5.4,10.7-9.9l8.4-10.1c4.3-5.1,6.4-9.5,6.4-13.1c0-2.4-0.9-4.2-2.7-5.5c-1.8-1.3-4.4-2.1-7.7-2.2v-2.7
		c7,0.3,14,0.4,21.1,0.4c5.5,0,9.9-0.1,13.3-0.4v2.7c-7.5,1.7-14.4,6.3-20.6,13.7L54.6,59l33.1,51.6C89.1,112.8,90.5,114.6,92,115.9
		z"/>
	<path d="M204.1,110.4l-33.9-75.3c-1,0.1-2.1,0.2-3.3,0.2c-1.1,0-2.1-0.1-3.3-0.2l-30.1,69.1c-2.2,4.9-4.2,8.6-6.1,11
		c-1.9,2.4-4.1,3.8-6.1,4.3v2.9c2-0.3,6-0.4,11.2-0.4c5.5,0,11,0.1,16.1,0.4v-2.9c-4-0.3-7.1-1.1-9.2-2.5c-2.1-1.4-3-3.8-3-7.1
		c0-3.7,1.4-8.5,4.1-14.6l16.8-38l22.1,50.5c1.2,2.6,1.8,4.6,1.8,6.3c0,1.9-0.8,3.2-2.3,4.1c-1.5,0.8-4.1,1.3-7.1,1.5v2.9
		c5-0.3,12.4-0.4,22.6-0.4c8,0,14.7,0.1,18.7,0.4v-2.9C210,119.4,206.9,116.4,204.1,110.4z"/>
	<path d="M235.2,55.1c0-5.9-0.3-12.3-1-19.3c8.3,0.3,22.2,0.4,41.7,0.4c20,0,34.2-0.1,42.5-0.4c-0.7,7.6-1,14.1-1,19.3
		c0,4.9,0.2,9.1,0.5,12.5h-3.3c-1.3-7.2-2.9-12.8-4.8-16.9c-1.8-4.1-4.2-7.1-7.1-8.9c-2.9-1.8-6.6-2.7-11.1-2.7h-4.4v66.6
		c0,3.9,0.4,6.8,1.1,8.6c0.7,1.8,2.1,3.1,4,3.8s5,1.1,9.2,1.2v2.8c-5.1-0.3-13.7-0.4-25.6-0.4c-12,0-20.2,0.1-24.8,0.4v-2.8
		c4.2-0.1,7.3-0.6,9.2-1.2s3.3-2,4-3.8c0.7-1.8,1.1-4.7,1.1-8.6V39H261c-4.5,0-8.2,0.9-11.1,2.7c-2.9,1.8-5.3,4.8-7.1,8.9
		c-1.8,4.1-3.4,9.8-4.7,16.9h-3.3C235.1,64.6,235.2,60.4,235.2,55.1z"/>
	<path d="M421,110.2l-33.8-74.7c-1,0.1-2.1,0.2-3.3,0.2c-1.1,0-2.1-0.1-3.3-0.2l-30,68.6c-2.2,4.9-4.3,8.5-6.2,10.9
		c-1.9,2.4-4,3.8-6.3,4.3v2.8c2.5-0.3,6.4-0.4,11.5-0.4c5.5,0,11,0.1,16.4,0.4v-2.8c-4.1-0.3-7.2-1.1-9.3-2.6
		c-2.1-1.4-3.1-3.8-3.1-7.1c0-3.7,1.3-8.5,4-14.6l16.6-37.8l22,50.1c1.2,2.6,1.8,4.7,1.8,6.4c0,1.8-0.8,3.2-2.3,4
		c-1.5,0.8-3.8,1.3-6.9,1.5v2.8c4.8-0.3,12.3-0.4,22.4-0.4c7.9,0,14.1,0.1,18.6,0.4v-2.8C426.7,119.1,423.8,116.1,421,110.2z"/>
	<path d="M544,122.1c-2.8,1.3-6.4,2-10.6,2c-5.3,0-9.5-1.1-12.4-3.2c-3-2.1-4.9-4.9-5.8-8.4l-4.1-16.8c-0.7-3.6-1.7-6.4-2.9-8.3
		c-1.2-1.9-2.7-3.2-4.4-3.9c-1.8-0.7-4-1-6.9-1h-4.6v24.4c0,3.6,0.3,6.1,0.8,7.8c0.5,1.6,1.5,2.7,2.9,3.3c1.4,0.6,3.7,1,6.9,1.1v2.8
		c-5.4-0.3-13.1-0.4-23.2-0.4c-8.9,0-15.5,0.1-19.8,0.4v-2.8c3.2-0.1,5.5-0.5,6.9-1.1c1.4-0.6,2.4-1.7,2.9-3.3
		c0.5-1.6,0.8-4.2,0.8-7.8V50.8c0-3.6-0.3-6.2-0.8-7.8c-0.5-1.6-1.5-2.7-2.9-3.3c-1.4-0.6-3.7-0.9-6.9-1.1v-2.8
		c4.3,0.3,10.7,0.4,19,0.4c3.8,0,8.1,0,12.8-0.1c4.7-0.1,8-0.1,9.8-0.1c12.7,0,22.2,1.9,28.5,5.8c6.3,3.8,9.4,9.2,9.4,15.9
		c0,3.7-1,7.2-3,10.5c-2,3.3-5.5,6.2-10.3,8.6c-4.9,2.4-11.3,4-19.4,4.8c1.4,0.1,2.8,0.3,4.2,0.5c6.8,0.8,12.2,2.4,16.1,4.6
		s6.5,5.8,7.7,10.8l3,12.6c0.6,2.7,1.4,4.6,2.3,5.7s2.2,1.7,3.6,1.7c2,0,4-1,6.1-3.1l2,1.9C549.4,118.8,546.9,120.8,544,122.1z
		 M509.6,77.2c2.7-1.8,4.6-4.1,5.5-7.1c1-3,1.5-6.6,1.5-10.9c0-6.9-1.3-12-4-15.5c-2.6-3.4-7-5.1-13.1-5.1c-2.1,0-3.6,0.3-4.6,1
		c-1,0.7-1.7,1.9-2.1,3.6c-0.4,1.7-0.6,4.3-0.6,7.6v29h6.1C503.2,79.8,506.9,78.9,509.6,77.2z"/>
	<path d="M606.1,118.8h15c5,0,9.2-0.9,12.7-2.8c3.5-1.9,6.3-4.9,8.6-9.2c2.3-4.2,4-9.9,5.1-16.9h3.3c-0.3,3.5-0.4,8-0.4,13.4
		c0,5.6,0.3,11.8,1,18.7c-6.6-0.3-17.8-0.4-33.6-0.4c-16.3,0-28.2,0.1-35.6,0.4v-2.8L626.8,39h-14.9c-4.8,0-8.9,0.9-12.2,2.6
		c-3.3,1.8-6.1,4.6-8.3,8.6c-2.2,4-3.9,9.3-5,15.9h-3.3c0.3-2.8,0.5-6.9,0.5-12.5c0-4.9-0.3-10.8-1-17.9c7.1,0.3,19,0.4,35.6,0.4
		c15,0,25.8-0.1,32.5-0.4v2.8L606.1,118.8z"/>
	<path d="M757.3,36.2c4.8,0,8.4-0.1,10.9-0.4v2.8c-1.9,0.8-3.8,2.4-5.8,4.8s-4.2,5.8-6.9,10.4l-16.2,29.7v22.7c0,3.8,0.3,6.6,1,8.3
		c0.7,1.7,1.9,2.9,3.6,3.6c1.8,0.6,4.6,1,8.5,1.2v2.8c-5-0.3-13.1-0.4-24.4-0.4c-11.6,0-19.5,0.1-23.7,0.4v-2.8
		c3.9-0.1,6.7-0.5,8.5-1.2c1.8-0.6,3-1.8,3.7-3.6c0.7-1.7,1-4.5,1-8.3V90.9l-25.4-44.2c-1.6-2.8-3-4.7-4.3-5.9s-2.6-1.8-4-2.1v-3
		c5.9,0.5,11.5,0.7,16.8,0.7c7.5,0,15.8-0.2,25-0.7v3c-2.8,0-5,0.3-6.7,0.8c-1.6,0.5-2.4,1.5-2.4,3.1c0,1.2,0.5,2.6,1.6,4.4
		l19.2,33.6l9.2-16.6c3.7-6.8,5.5-12.3,5.5-16.4c0-5.6-3.6-8.6-10.7-9v-2.8C747.2,36.1,752.5,36.2,757.3,36.2z"/>
	<path d="M882.4,40.7c-1.5,1-2.5,2.5-3,4.6c-0.5,2.1-0.8,5.2-0.8,9.4v67.6c-0.8,0-2.1-0.1-3.8-0.1c-1.7,0-2.9,0-3.7,0.1l-56.9-70.6
		v51.3c0,4.2,0.4,7.3,1.1,9.4s2.1,3.6,4.1,4.6s5.1,1.7,9.4,2.1v2.8c-4.2-0.3-9.6-0.4-16.2-0.4c-5.2,0-9.3,0.1-12.3,0.4v-2.8
		c3.1-0.4,5.4-1.1,6.9-2.1s2.5-2.5,3-4.6s0.8-5.2,0.8-9.4V50.8c0-3.6-0.3-6.1-0.8-7.8c-0.5-1.6-1.5-2.7-2.9-3.3
		c-1.4-0.6-3.7-1-6.9-1.1v-2.8c3,0.3,7.1,0.4,12.3,0.4c6.7,0,12.5-0.1,17.3-0.4L875.4,92V54.8c0-4.2-0.4-7.3-1.1-9.4
		c-0.8-2.1-2.1-3.7-4.2-4.6s-5.1-1.7-9.3-2.1v-2.8c4.1,0.3,9.5,0.4,16.2,0.4c5.3,0,9.4-0.1,12.3-0.4v2.8
		C886.2,39,883.9,39.7,882.4,40.7z"/>
	<path d="M995.9,110.2l-33.8-74.7c-1,0.1-2.1,0.2-3.3,0.2c-1.1,0-2.1-0.1-3.3-0.2l-30,68.6c-2.2,4.9-4.3,8.5-6.2,10.9
		c-1.9,2.4-4,3.8-6.3,4.3v2.8c2.5-0.3,6.4-0.4,11.5-0.4c5.5,0,11,0.1,16.4,0.4v-2.8c-4.1-0.3-7.2-1.1-9.3-2.6
		c-2.1-1.4-3.1-3.8-3.1-7.1c0-3.7,1.3-8.5,4-14.6l16.6-37.8l22,50.1c1.2,2.6,1.8,4.7,1.8,6.4c0,1.8-0.8,3.2-2.3,4s-3.8,1.3-6.9,1.5
		v2.8c4.8-0.3,12.3-0.4,22.4-0.4c7.9,0,14.1,0.1,18.6,0.4v-2.8C1001.7,119.1,998.7,116.1,995.9,110.2z"/>
	<path d="M1172.8,115.9c1.5,1.3,3.5,2.4,5.9,3.4v2.8c-6.8-0.3-14.1-0.4-22.2-0.4c-6.2,0-12.2,0.1-18,0.4v-2.8
		c2.7-0.1,4.6-0.4,5.8-0.8c1.2-0.4,1.7-1.1,1.7-1.9c0-0.8-0.5-2-1.5-3.6l-20.6-33.4c-1.3-2.1-2.4-3.7-3.4-4.8
		c-0.9-1.1-1.9-1.8-2.9-2.3s-2.2-0.7-3.7-0.9v35.4c0,3.6,0.3,6.1,0.8,7.8c0.5,1.6,1.5,2.7,2.9,3.3c1.4,0.6,3.7,1,6.9,1.1v2.8
		c-5.1-0.3-12.2-0.4-21.4-0.4c-10.2,0-17.6,0.1-22.4,0.4v-2.8c3.1-0.1,5.4-0.5,6.9-1.1c1.4-0.6,2.4-1.7,2.9-3.3
		c0.5-1.6,0.8-4.2,0.8-7.8V36.6c0-3.6-0.3-6.1-0.8-7.8c-0.5-1.6-1.5-2.7-2.9-3.3c-1.4-0.6-3.7-1-6.9-1.1v-2.8
		c4.8,0.3,12.2,0.4,22.4,0.4c9.2,0,16.3-0.1,21.4-0.4v2.8c-3.2,0.1-5.5,0.5-6.9,1.1c-1.4,0.6-2.4,1.7-2.9,3.3
		c-0.5,1.6-0.8,4.2-0.8,7.8v32c3.7-0.2,7.2-1.4,10.3-3.5c3.1-2.1,6.7-5.4,10.7-9.9l8.4-10.1c4.3-5.1,6.4-9.5,6.4-13.1
		c0-2.4-0.9-4.2-2.7-5.5c-1.8-1.3-4.4-2.1-7.7-2.2v-2.7c7,0.3,14,0.4,21.1,0.4c5.5,0,9.9-0.1,13.3-0.4v2.7
		c-7.5,1.7-14.4,6.3-20.6,13.7L1135.4,59l33.1,51.6C1169.9,112.8,1171.3,114.6,1172.8,115.9z"/>
	<path d="M1284.9,110.2l-33.8-74.7c-1,0.1-2.1,0.2-3.3,0.2c-1.1,0-2.1-0.1-3.3-0.2l-30,68.6c-2.2,4.9-4.3,8.5-6.2,10.9
		c-1.9,2.4-4,3.8-6.3,4.3v2.8c2.5-0.3,6.4-0.4,11.5-0.4c5.5,0,11,0.1,16.4,0.4v-2.8c-4.1-0.3-7.2-1.1-9.3-2.6
		c-2.1-1.4-3.1-3.8-3.1-7.1c0-3.7,1.3-8.5,4-14.6l16.6-37.8l22,50.1c1.2,2.6,1.8,4.7,1.8,6.4c0,1.8-0.8,3.2-2.3,4s-3.8,1.3-6.9,1.5
		v2.8c4.8-0.3,12.3-0.4,22.4-0.4c7.9,0,14.1,0.1,18.6,0.4v-2.8C1290.6,119.1,1287.6,116.1,1284.9,110.2z"/>
	<path d="M1395.6,113.5c-0.7,0-1.7,0.5-2.8,1.4c-3.5,2.9-7.2,5.2-11,6.8s-8.3,2.4-13.6,2.4c-9,0-17-1.7-23.9-5.2
		c-6.9-3.5-12.3-8.6-16.1-15.2s-5.8-14.6-5.8-23.9c0-9,2-17,5.9-24c4-7,9.4-12.4,16.3-16.3c6.9-3.9,14.6-5.8,23.2-5.8
		c3.8,0,7.2,0.4,10.1,1.2c2.9,0.8,5.3,1.8,7.3,3.1s4.2,2.9,6.5,4.9c1.2,0.9,2.1,1.4,2.8,1.4c1.9,0,3.1-2.9,3.7-8.6h3.3
		c-0.4,5.7-0.6,15.6-0.6,29.8h-3.3c-0.9-5.1-1.9-8.8-2.8-11.2s-2.4-4.7-4.3-7c-2.7-3.1-5.8-5.6-9.1-7.3c-3.3-1.8-6.8-2.6-10.4-2.6
		c-5.2,0-9.8,1.7-13.7,5c-3.9,3.4-6.9,8.2-9,14.5c-2.1,6.3-3.2,13.7-3.2,22.3c0,8.7,1.2,16.1,3.5,22.3c2.3,6.2,5.5,10.9,9.6,14
		c4.1,3.2,8.6,4.7,13.7,4.7c3.7,0,7.4-0.9,10.9-2.6c3.5-1.7,6.6-4.2,9.1-7.3c1.8-2.4,3.2-4.9,4.1-7.6c0.9-2.7,1.7-6.7,2.4-12h3.3
		c0,14.9,0.2,25.4,0.6,31.3h-3.3C1398.6,116.4,1397.5,113.5,1395.6,113.5z"/>
	<path d="M1466.1,118.8h15c5,0,9.2-0.9,12.7-2.8c3.5-1.9,6.3-4.9,8.6-9.2c2.3-4.2,4-9.9,5.1-16.9h3.3c-0.3,3.5-0.4,8-0.4,13.4
		c0,5.6,0.3,11.8,1,18.7c-6.6-0.3-17.8-0.4-33.6-0.4c-16.3,0-28.2,0.1-35.6,0.4v-2.8l44.6-80.2H1472c-4.8,0-8.9,0.9-12.2,2.6
		c-3.3,1.8-6.1,4.6-8.3,8.6c-2.2,4-3.9,9.3-5,15.9h-3.3c0.3-2.8,0.5-6.9,0.5-12.5c0-4.9-0.3-10.8-1-17.9c7.1,0.3,19,0.4,35.6,0.4
		c15,0,25.8-0.1,32.5-0.4v2.8L1466.1,118.8z"/>
	<path d="M1617.4,36.2c4.8,0,8.4-0.1,10.9-0.4v2.8c-1.9,0.8-3.8,2.4-5.8,4.8s-4.2,5.8-6.9,10.4l-16.2,29.7v22.7c0,3.8,0.3,6.6,1,8.3
		c0.7,1.7,1.9,2.9,3.6,3.6c1.8,0.6,4.6,1,8.5,1.2v2.8c-5-0.3-13.1-0.4-24.4-0.4c-11.6,0-19.5,0.1-23.7,0.4v-2.8
		c3.9-0.1,6.7-0.5,8.5-1.2c1.8-0.6,3-1.8,3.7-3.6c0.7-1.7,1-4.5,1-8.3V90.9l-25.4-44.2c-1.6-2.8-3-4.7-4.3-5.9s-2.6-1.8-4-2.1v-3
		c5.9,0.5,11.5,0.7,16.8,0.7c7.5,0,15.8-0.2,25-0.7v3c-2.8,0-5,0.3-6.7,0.8c-1.6,0.5-2.4,1.5-2.4,3.1c0,1.2,0.5,2.6,1.6,4.4
		l19.2,33.6l9.2-16.6c3.7-6.8,5.5-12.3,5.5-16.4c0-5.6-3.6-8.6-10.7-9v-2.8C1607.2,36.1,1612.6,36.2,1617.4,36.2z"/>
	<path d="M1742.5,40.7c-1.5,1-2.5,2.5-3,4.6s-0.8,5.2-0.8,9.4v67.6c-0.8,0-2.1-0.1-3.8-0.1c-1.7,0-2.9,0-3.7,0.1l-56.9-70.6v51.3
		c0,4.2,0.4,7.3,1.1,9.4c0.7,2.1,2.1,3.6,4.1,4.6s5.1,1.7,9.4,2.1v2.8c-4.2-0.3-9.6-0.4-16.2-0.4c-5.2,0-9.3,0.1-12.3,0.4v-2.8
		c3.1-0.4,5.4-1.1,6.9-2.1c1.5-1,2.5-2.5,3-4.6c0.5-2.1,0.8-5.2,0.8-9.4V50.8c0-3.6-0.3-6.1-0.8-7.8c-0.5-1.6-1.5-2.7-2.9-3.3
		c-1.4-0.6-3.7-1-6.9-1.1v-2.8c3,0.3,7.1,0.4,12.3,0.4c6.7,0,12.5-0.1,17.3-0.4l45.3,56.2V54.8c0-4.2-0.4-7.3-1.1-9.4
		c-0.8-2.1-2.1-3.7-4.2-4.6s-5.1-1.7-9.3-2.1v-2.8c4.1,0.3,9.5,0.4,16.2,0.4c5.3,0,9.4-0.1,12.3-0.4v2.8
		C1746.3,39,1744,39.7,1742.5,40.7z M1703.4,15.7c2.1-2,4.6-4.7,7.6-7.9c3-3.3,5.6-5.5,7.8-6.6c1.4-0.7,2.8-1.1,4.3-1.1
		c1.5,0,2.9,0.4,4.2,1.1c1.3,0.7,2.3,1.8,3,3.1c0.5,1.1,0.8,2.2,0.8,3.3c0,1.4-0.4,2.8-1.2,4.1c-0.8,1.3-2,2.4-3.6,3.2
		c-2.1,1.2-4.9,2.2-8.4,3.1c-3.5,0.9-6.8,1.7-9.9,2.6s-6.9,2.1-11.3,3.7l-1-1.7C1698.8,19.9,1701.3,17.7,1703.4,15.7z"/>
	<path d="M1798.2,112.2c4.8,5.8,11.5,8.6,20.2,8.6c2.7,0,5.3-0.5,7.7-1.4c2.4-0.9,4.4-2.4,5.9-4.3c1.5-1.9,2.3-4.4,2.3-7.3
		c0-2.6-0.7-5-2.2-7.1s-3.5-4.1-6.1-6c-2.6-1.9-6.3-4.3-11.2-7.1c-5.8-3.3-10.7-6.4-14.6-9.3c-3.9-2.9-7.1-6.1-9.5-9.7
		s-3.7-7.6-3.7-11.9c0-4.9,1.4-9.2,4.3-12.6s6.7-6.1,11.6-7.8c4.9-1.7,10.5-2.6,16.7-2.6c4.3,0,8.1,0.5,11.1,1.4
		c3.1,0.9,6,2.2,8.8,3.8c1.3,0.8,2.3,1.3,3,1.6s1.2,0.4,1.8,0.4c0.9,0,1.5-0.5,2-1.5c0.4-1,0.8-2.6,1.1-4.8h3.3
		c-0.5,5.7-0.7,15.5-0.7,29.5h-3.3c-1-8.5-3.8-15.2-8.2-20.1c-4.5-4.9-10.3-7.3-17.5-7.3c-3.1,0-5.9,0.5-8.3,1.4
		c-2.4,0.9-4.2,2.3-5.5,4s-1.9,3.6-1.9,5.9c0,2.8,0.9,5.4,2.8,7.6s4,4.2,6.6,5.9c2.5,1.7,7,4.5,13.5,8.4c5.6,3.2,10.3,6.1,13.9,8.7
		c3.6,2.6,6.6,5.7,9,9.3c2.4,3.5,3.5,7.5,3.5,12c0,5.2-1.5,9.6-4.5,13.2c-3,3.6-7.1,6.4-12.4,8.2c-5.3,1.8-11.4,2.7-18.2,2.7
		c-4.6,0-8.5-0.5-11.8-1.5s-6.7-2.4-10.1-4c-2.3-1.2-4-1.7-4.9-1.7c-0.9,0-1.5,0.5-2,1.5c-0.5,1-0.8,2.6-1.1,4.8h-3.3
		c0.4-5.3,0.6-16.8,0.6-34.6h3.3C1790.8,98.5,1793.5,106.5,1798.2,112.2z"/>
	<path d="M1983.5,116c1.3,1.3,2.9,2.4,4.9,3.3v2.8c-6.5-0.3-13.8-0.4-21.7-0.4c-6.7,0-13.2,0.1-19.3,0.4v-2.8
		c3.1-0.1,5.2-0.4,6.4-0.8c1.2-0.4,1.9-1,1.9-1.9c0-0.8-0.5-2-1.6-3.7l-18.7-26.7c-1.7-2.4-3.3-4.1-4.9-5.2s-3.7-1.8-6.3-1.9v28
		c0,3.6,0.3,6.1,0.8,7.8c0.5,1.6,1.5,2.7,2.9,3.3c1.4,0.6,3.7,1,6.9,1.1v2.8c-4.8-0.3-11.8-0.4-21-0.4c-9.9,0-17.2,0.1-22,0.4v-2.8
		c3.2-0.1,5.5-0.5,6.9-1.1c1.4-0.6,2.4-1.7,2.9-3.3c0.5-1.6,0.8-4.2,0.8-7.8V50.8c0-3.6-0.3-6.1-0.8-7.8c-0.5-1.6-1.5-2.7-2.9-3.3
		c-1.4-0.6-3.7-1-6.9-1.1v-2.8c4.8,0.3,12.1,0.4,22,0.4c9.2,0,16.2-0.1,21-0.4v2.8c-3.2,0.1-5.6,0.5-7,1.1c-1.4,0.6-2.4,1.7-2.9,3.3
		c-0.5,1.6-0.8,4.2-0.8,7.8v25.3c4.1-0.3,7.8-1.3,11.2-3c3.4-1.7,7-4.4,11-8.1l8.7-8.8c3.7-3.4,5.5-6.7,5.5-9.8c0-2.3-1-4.1-2.9-5.5
		c-1.9-1.4-4.5-2.2-7.7-2.4v-2.7c6.9,0.3,14.2,0.4,21.9,0.4c5,0,9.2-0.1,12.6-0.4v2.7c-3.3,0.8-6.5,2.1-9.5,3.9s-6.3,4.4-9.8,7.8
		l-17.4,17.2l31.1,43.3C1980.6,112.9,1982.1,114.7,1983.5,116z"/>
	<path d="M2095.6,110.2l-33.8-74.7c-1,0.1-2.1,0.2-3.3,0.2c-1.1,0-2.1-0.1-3.3-0.2l-30,68.6c-2.2,4.9-4.3,8.5-6.2,10.9
		c-1.9,2.4-4,3.8-6.3,4.3v2.8c2.5-0.3,6.4-0.4,11.5-0.4c5.5,0,11,0.1,16.4,0.4v-2.8c-4.1-0.3-7.2-1.1-9.3-2.6
		c-2.1-1.4-3.1-3.8-3.1-7.1c0-3.7,1.3-8.5,4-14.6l16.6-37.8l22,50.1c1.2,2.6,1.8,4.7,1.8,6.4c0,1.8-0.8,3.2-2.3,4
		c-1.5,0.8-3.8,1.3-6.9,1.5v2.8c4.8-0.3,12.3-0.4,22.4-0.4c7.9,0,14.1,0.1,18.6,0.4v-2.8C2101.4,119.1,2098.4,116.1,2095.6,110.2z"
		/>
</g>
</svg>
